#!OML:ASF E:\VariousWalksJay\Project 1\Capture day 1\Session 1\Actor2.ASF
:FULLY-SPECIFIED
:DEGREES
1069
root 4.95418 16.9997 -23.0093 190.657 -1.90616 -179.737
lowerback 12.2212 -1.36015 4.51165
upperback 15.3217 -4.70848 -3.44834
thorax 9.1904 -2.94535 -6.24478
lowerneck 3.08785 -2.34246 -2.59363
upperneck -3.34389 -2.79128 9.11833
head -1.43243 -1.4819 3.47468
rclavicle -2.38542e-014 -4.53229e-014
rhumerus -17.6437 22.1937 -76.752
rradius 73.3085
rwrist -1.87069
rhand -7.80327 -9.76178
rfingers 7.12502
rthumb 18.0981 -38.9398
lclavicle -2.38542e-014 -4.53229e-014
lhumerus 5.44459 -23.4658 62.4788
lradius 59.0597
lwrist 9.30717
lhand -6.3533 -14.768
lfingers 7.12502
lthumb 19.4927 14.2749
rfemur -47.4759 1.73971 15.4324
rtibia 34.6764
rfoot -12.2719 -9.64161
rtoes -18.8275
lfemur -21.4509 13.4798 -15.1845
ltibia 42.4406
lfoot -27.2639 6.92864
ltoes -15.161
1070
root 5.0053 16.9575 -23.146 190.578 -2.3308 -180.173
lowerback 12.0663 -1.47195 4.49634
upperback 15.228 -4.8079 -3.36051
thorax 9.15639 -2.98359 -6.13402
lowerneck 2.66356 -2.50831 -2.4148
upperneck -3.0943 -3.02288 9.10711
head -1.26241 -1.58405 3.4249
rclavicle 7.95139e-015 1.35174e-014
rhumerus -17.8594 22.1492 -76.4904
rradius 73.4192
rwrist -1.83771
rhand -7.63073 -9.79093
rfingers 7.12502
rthumb 18.2641 -38.9535
lclavicle 7.95139e-015 1.35174e-014
lhumerus 5.15069 -24.1123 62.7889
lradius 59.0258
lwrist 9.44362
lhand -6.23899 -14.6712
lfingers 7.12502
lthumb 19.6026 14.3605
rfemur -47.2568 1.1348 15.3693
rtibia 35.574
rfoot -10.1244 -8.66549
rtoes -17.5914
lfemur -21.079 13.5949 -15.2391
ltibia 42.7895
lfoot -27.4855 6.40522
ltoes -15.9951
1071
root 5.04696 16.9246 -23.2774 190.411 -2.81414 -180.68
lowerback 11.9492 -1.64372 4.49534
upperback 15.1934 -5.01309 -3.28122
thorax 9.15751 -3.07949 -6.0384
lowerneck 2.67544 -2.53529 -2.44005
upperneck -3.19824 -3.05231 9.11311
head -1.29579 -1.60077 3.43449
rclavicle 7.95139e-016 -2.8625e-014
rhumerus -17.9833 22.2178 -76.2081
rradius 73.5367
rwrist -1.78468
rhand -7.8396 -9.7131
rfingers 7.12502
rthumb 18.0632 -38.8943
lclavicle 7.95139e-016 -2.8625e-014
lhumerus 4.85189 -24.6011 63.1405
lradius 58.993
lwrist 9.65714
lhand -6.20796 -14.6185
lfingers 7.12502
lthumb 19.6324 14.4102
rfemur -47.1566 0.333122 15.2026
rtibia 36.8341
rfoot -8.81609 -7.5668
rtoes -14.3003
lfemur -20.6284 13.517 -15.3853
ltibia 43.1639
lfoot -27.6476 6.05754
ltoes -17.0761
1072
root 5.10238 16.8887 -23.403 190.169 -3.06178 -180.874
lowerback 12.0034 -1.6997 4.53705
upperback 15.1383 -5.0643 -3.11281
thorax 9.06622 -3.10762 -5.8639
lowerneck 2.79427 -2.57875 -2.41033
upperneck -3.30964 -3.10588 9.0493
head -1.35069 -1.63285 3.41256
rclavicle -1.19271e-014 -2.54444e-014
rhumerus -18.0466 22.3663 -75.9023
rradius 73.6059
rwrist -1.81564
rhand -7.77442 -9.74233
rfingers 7.12502
rthumb 18.1259 -38.9178
lclavicle -1.19271e-014 -2.54444e-014
lhumerus 4.58812 -25.0975 63.4502
lradius 58.9512
lwrist 9.82001
lhand -6.32923 -14.5988
lfingers 7.12502
lthumb 19.5158 14.4417
rfemur -47.3955 -0.0261109 15.3209
rtibia 38.3458
rfoot -7.74337 -7.05431
rtoes -11.1781
lfemur -20.1805 13.5988 -15.1376
ltibia 43.6186
lfoot -27.6769 5.77422
ltoes -17.9866
1073
root 5.15028 16.8526 -23.5169 189.872 -3.2501 -181.189
lowerback 12.201 -1.82294 4.28077
upperback 15.2225 -5.29815 -2.82542
thorax 9.06248 -3.28388 -5.38767
lowerneck 2.64437 -2.46719 -2.87624
upperneck -3.49097 -2.97271 8.99902
head -1.38605 -1.5627 3.48222
rclavicle -1.35174e-014 1.27222e-014
rhumerus -17.5578 22.9432 -75.2451
rradius 73.6248
rwrist -1.80544
rhand -7.90054 -9.64867
rfingers 7.12502
rthumb 18.0045 -38.8353
lclavicle -1.35174e-014 1.27222e-014
lhumerus 4.20442 -24.8172 64.1062
lradius 58.9786
lwrist 9.6834
lhand -6.44811 -14.6164
lfingers 7.12502
lthumb 19.4015 14.4357
rfemur -47.7759 -0.488382 15.3288
rtibia 39.9621
rfoot -6.77783 -7.27319
rtoes -10.2386
lfemur -19.7384 13.5433 -15.0474
ltibia 44.177
lfoot -27.643 5.61813
ltoes -19.0356
1074
root 5.19242 16.8218 -23.6328 189.452 -3.36144 -181.411
lowerback 12.4199 -1.84829 4.32257
upperback 15.3803 -5.40728 -2.6444
thorax 9.1323 -3.3681 -5.20872
lowerneck 3.24806 -2.31432 -3.38239
upperneck -4.1614 -2.73858 9.22338
head -1.72263 -1.46694 3.68332
rclavicle -2.54444e-014 -3.02153e-014
rhumerus -17.1039 23.1593 -74.7685
rradius 73.5838
rwrist -1.80751
rhand -8.19065 -9.62729
rfingers 7.12502
rthumb 17.7254 -38.8394
lclavicle -2.54444e-014 -3.02153e-014
lhumerus 4.09772 -24.8877 64.4724
lradius 58.9636
lwrist 9.67525
lhand -6.5314 -14.616
lfingers 7.12502
lthumb 19.3215 14.4441
rfemur -48.0135 -1.11878 15.5495
rtibia 41.6432
rfoot -6.07851 -6.73082
rtoes -7.66657
lfemur -19.1375 13.5303 -14.8503
ltibia 44.8026
lfoot -27.6283 5.4574
ltoes -19.8191
